<mxfile host="app.diagrams.net" modified="2022-11-03T06:18:33.100Z" agent="5.0 (Macintosh; Intel Mac OS X 10_15_7) AppleWebKit/537.36 (KHTML, like Gecko) Chrome/107.0.0.0 Safari/537.36" etag="4-sjb37Akswxi-Vpa1vH" version="20.5.1" type="github">
  <diagram id="MV6-AZoP4zqaIT_8NBvW" name="Page-1">
    <mxGraphModel dx="2128" dy="714" grid="1" gridSize="10" guides="1" tooltips="1" connect="1" arrows="1" fold="1" page="1" pageScale="1" pageWidth="850" pageHeight="1100" math="0" shadow="0">
      <root>
        <mxCell id="0" />
        <mxCell id="1" parent="0" />
        <mxCell id="9iUjwQe2kJsiWRL2tb33-15" style="rounded=0;orthogonalLoop=1;jettySize=auto;html=1;exitX=0.5;exitY=1;exitDx=0;exitDy=0;fontSize=16;edgeStyle=orthogonalEdgeStyle;shadow=0;" edge="1" parent="1" source="9iUjwQe2kJsiWRL2tb33-1" target="9iUjwQe2kJsiWRL2tb33-2">
          <mxGeometry relative="1" as="geometry" />
        </mxCell>
        <mxCell id="9iUjwQe2kJsiWRL2tb33-16" style="edgeStyle=orthogonalEdgeStyle;rounded=0;orthogonalLoop=1;jettySize=auto;html=1;exitX=0.5;exitY=1;exitDx=0;exitDy=0;entryX=0.5;entryY=0;entryDx=0;entryDy=0;fontSize=16;shadow=0;" edge="1" parent="1" source="9iUjwQe2kJsiWRL2tb33-1" target="9iUjwQe2kJsiWRL2tb33-3">
          <mxGeometry relative="1" as="geometry" />
        </mxCell>
        <mxCell id="9iUjwQe2kJsiWRL2tb33-1" value="广告业务" style="ellipse;whiteSpace=wrap;html=1;shadow=0;glass=1;sketch=0;fontSize=16;" vertex="1" parent="1">
          <mxGeometry x="369" y="250" width="120" height="80" as="geometry" />
        </mxCell>
        <mxCell id="9iUjwQe2kJsiWRL2tb33-17" style="edgeStyle=orthogonalEdgeStyle;rounded=0;orthogonalLoop=1;jettySize=auto;html=1;exitX=0.5;exitY=1;exitDx=0;exitDy=0;entryX=0.5;entryY=0;entryDx=0;entryDy=0;shadow=0;fontSize=16;" edge="1" parent="1" source="9iUjwQe2kJsiWRL2tb33-2" target="9iUjwQe2kJsiWRL2tb33-4">
          <mxGeometry relative="1" as="geometry" />
        </mxCell>
        <mxCell id="9iUjwQe2kJsiWRL2tb33-18" style="edgeStyle=orthogonalEdgeStyle;rounded=0;orthogonalLoop=1;jettySize=auto;html=1;exitX=0.5;exitY=1;exitDx=0;exitDy=0;entryX=0.5;entryY=0;entryDx=0;entryDy=0;shadow=0;fontSize=16;" edge="1" parent="1" source="9iUjwQe2kJsiWRL2tb33-2" target="9iUjwQe2kJsiWRL2tb33-5">
          <mxGeometry relative="1" as="geometry" />
        </mxCell>
        <mxCell id="9iUjwQe2kJsiWRL2tb33-19" style="edgeStyle=orthogonalEdgeStyle;rounded=0;orthogonalLoop=1;jettySize=auto;html=1;exitX=0.5;exitY=1;exitDx=0;exitDy=0;entryX=0.5;entryY=0;entryDx=0;entryDy=0;shadow=0;fontSize=16;" edge="1" parent="1" source="9iUjwQe2kJsiWRL2tb33-2" target="9iUjwQe2kJsiWRL2tb33-6">
          <mxGeometry relative="1" as="geometry" />
        </mxCell>
        <mxCell id="9iUjwQe2kJsiWRL2tb33-20" style="edgeStyle=orthogonalEdgeStyle;rounded=0;orthogonalLoop=1;jettySize=auto;html=1;exitX=0.5;exitY=1;exitDx=0;exitDy=0;shadow=0;fontSize=16;" edge="1" parent="1" source="9iUjwQe2kJsiWRL2tb33-2" target="9iUjwQe2kJsiWRL2tb33-7">
          <mxGeometry relative="1" as="geometry" />
        </mxCell>
        <mxCell id="9iUjwQe2kJsiWRL2tb33-2" value="在线引擎" style="ellipse;whiteSpace=wrap;html=1;shadow=0;glass=1;sketch=0;fontSize=16;" vertex="1" parent="1">
          <mxGeometry x="196" y="370" width="120" height="80" as="geometry" />
        </mxCell>
        <mxCell id="9iUjwQe2kJsiWRL2tb33-3" value="投放平台" style="ellipse;whiteSpace=wrap;html=1;shadow=0;glass=1;sketch=0;fontSize=16;" vertex="1" parent="1">
          <mxGeometry x="542" y="370" width="120" height="80" as="geometry" />
        </mxCell>
        <mxCell id="9iUjwQe2kJsiWRL2tb33-4" value="接入层" style="ellipse;whiteSpace=wrap;html=1;shadow=0;glass=1;sketch=0;fontSize=16;flipH=1;flipV=0;" vertex="1" parent="1">
          <mxGeometry x="-160" y="500" width="120" height="80" as="geometry" />
        </mxCell>
        <mxCell id="9iUjwQe2kJsiWRL2tb33-21" style="edgeStyle=orthogonalEdgeStyle;rounded=0;orthogonalLoop=1;jettySize=auto;html=1;exitX=0.5;exitY=1;exitDx=0;exitDy=0;shadow=0;fontSize=16;" edge="1" parent="1" source="9iUjwQe2kJsiWRL2tb33-5" target="9iUjwQe2kJsiWRL2tb33-8">
          <mxGeometry relative="1" as="geometry" />
        </mxCell>
        <mxCell id="9iUjwQe2kJsiWRL2tb33-22" style="edgeStyle=orthogonalEdgeStyle;rounded=0;orthogonalLoop=1;jettySize=auto;html=1;exitX=0.5;exitY=1;exitDx=0;exitDy=0;entryX=0.5;entryY=0;entryDx=0;entryDy=0;shadow=0;fontSize=16;" edge="1" parent="1" source="9iUjwQe2kJsiWRL2tb33-5" target="9iUjwQe2kJsiWRL2tb33-9">
          <mxGeometry relative="1" as="geometry" />
        </mxCell>
        <mxCell id="9iUjwQe2kJsiWRL2tb33-5" value="检索层" style="ellipse;whiteSpace=wrap;html=1;shadow=0;glass=1;sketch=0;fontSize=16;flipH=1;flipV=0;" vertex="1" parent="1">
          <mxGeometry x="50" y="500" width="120" height="80" as="geometry" />
        </mxCell>
        <mxCell id="9iUjwQe2kJsiWRL2tb33-6" value="支撑层" style="ellipse;whiteSpace=wrap;html=1;shadow=0;glass=1;sketch=0;fontSize=16;flipH=1;flipV=0;" vertex="1" parent="1">
          <mxGeometry x="305" y="500" width="120" height="80" as="geometry" />
        </mxCell>
        <mxCell id="9iUjwQe2kJsiWRL2tb33-7" value="数据层" style="ellipse;whiteSpace=wrap;html=1;shadow=0;glass=1;sketch=0;fontSize=16;flipH=1;flipV=0;" vertex="1" parent="1">
          <mxGeometry x="485" y="500" width="120" height="80" as="geometry" />
        </mxCell>
        <mxCell id="9iUjwQe2kJsiWRL2tb33-23" style="edgeStyle=orthogonalEdgeStyle;rounded=0;orthogonalLoop=1;jettySize=auto;html=1;exitX=0.5;exitY=1;exitDx=0;exitDy=0;entryX=0.5;entryY=0;entryDx=0;entryDy=0;shadow=0;fontSize=16;" edge="1" parent="1" source="9iUjwQe2kJsiWRL2tb33-8" target="9iUjwQe2kJsiWRL2tb33-10">
          <mxGeometry relative="1" as="geometry" />
        </mxCell>
        <mxCell id="9iUjwQe2kJsiWRL2tb33-24" style="edgeStyle=orthogonalEdgeStyle;rounded=0;orthogonalLoop=1;jettySize=auto;html=1;exitX=0.5;exitY=1;exitDx=0;exitDy=0;shadow=0;fontSize=16;" edge="1" parent="1" source="9iUjwQe2kJsiWRL2tb33-8" target="9iUjwQe2kJsiWRL2tb33-11">
          <mxGeometry relative="1" as="geometry" />
        </mxCell>
        <mxCell id="9iUjwQe2kJsiWRL2tb33-8" value="召回" style="ellipse;whiteSpace=wrap;html=1;shadow=0;glass=1;sketch=0;fontSize=16;" vertex="1" parent="1">
          <mxGeometry x="-180" y="640" width="120" height="80" as="geometry" />
        </mxCell>
        <mxCell id="9iUjwQe2kJsiWRL2tb33-25" style="edgeStyle=orthogonalEdgeStyle;rounded=0;orthogonalLoop=1;jettySize=auto;html=1;exitX=0.5;exitY=1;exitDx=0;exitDy=0;entryX=0.5;entryY=0;entryDx=0;entryDy=0;shadow=0;fontSize=16;" edge="1" parent="1" source="9iUjwQe2kJsiWRL2tb33-9" target="9iUjwQe2kJsiWRL2tb33-12">
          <mxGeometry relative="1" as="geometry" />
        </mxCell>
        <mxCell id="9iUjwQe2kJsiWRL2tb33-26" style="edgeStyle=orthogonalEdgeStyle;rounded=0;orthogonalLoop=1;jettySize=auto;html=1;exitX=0.5;exitY=1;exitDx=0;exitDy=0;entryX=0.5;entryY=0;entryDx=0;entryDy=0;shadow=0;fontSize=16;" edge="1" parent="1" source="9iUjwQe2kJsiWRL2tb33-9" target="9iUjwQe2kJsiWRL2tb33-13">
          <mxGeometry relative="1" as="geometry" />
        </mxCell>
        <mxCell id="9iUjwQe2kJsiWRL2tb33-27" style="edgeStyle=orthogonalEdgeStyle;rounded=0;orthogonalLoop=1;jettySize=auto;html=1;exitX=0.5;exitY=1;exitDx=0;exitDy=0;shadow=0;fontSize=16;" edge="1" parent="1" source="9iUjwQe2kJsiWRL2tb33-9" target="9iUjwQe2kJsiWRL2tb33-14">
          <mxGeometry relative="1" as="geometry" />
        </mxCell>
        <mxCell id="9iUjwQe2kJsiWRL2tb33-9" value="排序" style="ellipse;whiteSpace=wrap;html=1;shadow=0;glass=1;sketch=0;fontSize=16;" vertex="1" parent="1">
          <mxGeometry x="240" y="640" width="120" height="80" as="geometry" />
        </mxCell>
        <mxCell id="9iUjwQe2kJsiWRL2tb33-10" value="定向" style="ellipse;whiteSpace=wrap;html=1;shadow=0;glass=1;sketch=0;fontSize=16;" vertex="1" parent="1">
          <mxGeometry x="-320" y="760" width="120" height="80" as="geometry" />
        </mxCell>
        <mxCell id="9iUjwQe2kJsiWRL2tb33-11" value="召回" style="ellipse;whiteSpace=wrap;html=1;shadow=0;glass=1;sketch=0;fontSize=16;" vertex="1" parent="1">
          <mxGeometry x="-40" y="760" width="120" height="80" as="geometry" />
        </mxCell>
        <mxCell id="9iUjwQe2kJsiWRL2tb33-12" value="粗排" style="ellipse;whiteSpace=wrap;html=1;shadow=0;glass=1;sketch=0;fontSize=16;flipV=1;flipH=1;" vertex="1" parent="1">
          <mxGeometry x="100" y="760" width="120" height="80" as="geometry" />
        </mxCell>
        <mxCell id="9iUjwQe2kJsiWRL2tb33-13" value="精排" style="ellipse;whiteSpace=wrap;html=1;shadow=0;glass=1;sketch=0;fontSize=16;flipV=1;flipH=1;" vertex="1" parent="1">
          <mxGeometry x="240" y="760" width="120" height="80" as="geometry" />
        </mxCell>
        <mxCell id="9iUjwQe2kJsiWRL2tb33-14" value="混排" style="ellipse;whiteSpace=wrap;html=1;shadow=0;glass=1;sketch=0;fontSize=16;flipV=1;flipH=1;" vertex="1" parent="1">
          <mxGeometry x="390" y="760" width="120" height="80" as="geometry" />
        </mxCell>
        <mxCell id="9iUjwQe2kJsiWRL2tb33-28" value="预算" style="ellipse;whiteSpace=wrap;html=1;shadow=0;glass=1;sketch=0;fontSize=16;" vertex="1" parent="1">
          <mxGeometry x="410" y="630" width="120" height="80" as="geometry" />
        </mxCell>
        <mxCell id="9iUjwQe2kJsiWRL2tb33-29" value="出价" style="ellipse;whiteSpace=wrap;html=1;shadow=0;glass=1;sketch=0;fontSize=16;" vertex="1" parent="1">
          <mxGeometry x="560" y="630" width="120" height="80" as="geometry" />
        </mxCell>
      </root>
    </mxGraphModel>
  </diagram>
</mxfile>
